<svg xmlns="http://www.w3.org/2000/svg" xmlns:svg="http://www.w3.org/2000/svg" id="svg2" width="50" height="50" version="1.0"><defs id="defs4"><linearGradient id="linearGradient3841"><stop id="stop3843" offset="0" style="stop-color:#fdf08b;stop-opacity:1"/><stop style="stop-color:#edd400;stop-opacity:1" id="stop3845" offset=".667"/><stop id="stop3847" offset="1" style="stop-color:#fdf08b;stop-opacity:1"/></linearGradient></defs><metadata id="metadata7"/><g id="layer1" transform="translate(-164.71428,-194.21933)"><g id="g3806" transform="translate(-60,0)"><rect id="rect3157-9" width="47" height="47" x="226.214" y="195.719" rx="3.163" ry="3.163" style="fill:#f6f5f4;fill-opacity:1;stroke:#878787;stroke-width:1;stroke-miterlimit:4;stroke-opacity:1;stroke-dasharray:none"/><path id="path3855-3" d="m 85,10 4.408389,8.932373 9.857459,1.432372 -7.132924,6.952882 1.683854,9.817628 L 85,32.5 l -8.816779,4.635255 1.683855,-9.817628 -7.132924,-6.952882 9.857459,-1.432372 z" transform="matrix(0.96651072,0,0,0.96634675,168.56087,196.05586)" style="color:#000;fill:none;stroke:#878787;stroke-width:3.10421228;stroke-linecap:butt;stroke-linejoin:miter;stroke-miterlimit:4;stroke-opacity:1;stroke-dasharray:none;stroke-dashoffset:0;marker:none;visibility:visible;display:inline;overflow:visible;enable-background:accumulate"/><path id="path3855" d="m 85,10 4.408389,8.932373 9.857459,1.432372 -7.132924,6.952882 1.683854,9.817628 L 85,32.5 l -8.816779,4.635255 1.683855,-9.817628 -7.132924,-6.952882 9.857459,-1.432372 z" transform="matrix(0.96651072,0,0,0.96634675,167.56087,195.05586)" style="color:#000;fill:#2e3436;stroke:#2e3436;stroke-width:3.10421228;stroke-linecap:butt;stroke-linejoin:miter;stroke-miterlimit:4;stroke-opacity:1;stroke-dasharray:none;stroke-dashoffset:0;marker:none;visibility:visible;display:inline;overflow:visible;enable-background:accumulate;fill-opacity:1"/></g></g></svg>