<svg xmlns="http://www.w3.org/2000/svg" xmlns:osb="http://www.openswatchbook.org/uri/2009/osb" xmlns:svg="http://www.w3.org/2000/svg" id="svg7384" width="16" height="16" version="1.1"><metadata id="metadata90"/><title id="title9167">Gnome Symbolic Icon Theme</title><defs id="defs7386"><linearGradient id="linearGradient7212" osb:paint="solid"><stop id="stop7214" offset="0" style="stop-color:#000;stop-opacity:1"/></linearGradient></defs><g id="layer9" transform="translate(-283.0002,125)" style="display:inline"><path style="color:#000;clip-rule:nonzero;display:inline;overflow:visible;visibility:visible;opacity:1;isolation:auto;mix-blend-mode:normal;color-interpolation:sRGB;color-interpolation-filters:linearRGB;solid-color:#000;solid-opacity:1;fill:#bebebe;fill-opacity:.36470588;fill-rule:nonzero;stroke:none;stroke-width:1;stroke-linecap:butt;stroke-linejoin:miter;stroke-miterlimit:4;stroke-dasharray:none;stroke-dashoffset:0;stroke-opacity:1;marker:none;color-rendering:auto;image-rendering:auto;shape-rendering:auto;text-rendering:auto;enable-background:accumulate" id="path664-4" d="m 294.49909,-124.99257 c -1.93444,0 -3.5026,1.56817 -3.5026,3.5026 0,1.93443 1.56816,3.5026 3.5026,3.5026 1.93443,0 3.5026,-1.56817 3.5026,-3.5026 0,-1.93443 -1.56817,-3.5026 -3.5026,-3.5026 z m -1.97182,2.00156 c 0.27697,0 0.5015,0.22082 0.5015,0.49322 0,0.2724 -0.22453,0.49322 -0.5015,0.49322 -0.27698,0 -0.50151,-0.22082 -0.50151,-0.49322 0,-0.2724 0.22453,-0.49322 0.50151,-0.49322 z"/><path style="color:#000;clip-rule:nonzero;display:inline;overflow:visible;visibility:visible;opacity:1;isolation:auto;mix-blend-mode:normal;color-interpolation:sRGB;color-interpolation-filters:linearRGB;solid-color:#000;solid-opacity:1;fill:#bebebe;fill-opacity:1;fill-rule:nonzero;stroke:none;stroke-width:1;stroke-linecap:butt;stroke-linejoin:miter;stroke-miterlimit:4;stroke-dasharray:none;stroke-dashoffset:0;stroke-opacity:1;marker:none;color-rendering:auto;image-rendering:auto;shape-rendering:auto;text-rendering:auto;enable-background:accumulate" id="path664-4-2" d="m 286.50353,-124.99257 c -1.93443,0 -3.5026,1.56817 -3.5026,3.5026 0,1.93443 1.56817,3.5026 3.5026,3.5026 1.93443,0 3.5026,-1.56817 3.5026,-3.5026 0,-1.93443 -1.56817,-3.5026 -3.5026,-3.5026 z m -2.00361,2.00156 c 0.2705,0 0.48979,0.22082 0.48979,0.49322 0,0.2724 -0.21929,0.49322 -0.48979,0.49322 -0.2705,0 -0.48978,-0.22082 -0.48978,-0.49322 0,-0.2724 0.21928,-0.49322 0.48978,-0.49322 z"/><path style="color:#000;clip-rule:nonzero;display:inline;overflow:visible;visibility:visible;opacity:1;isolation:auto;mix-blend-mode:normal;color-interpolation:sRGB;color-interpolation-filters:linearRGB;solid-color:#000;solid-opacity:1;fill:#bebebe;fill-opacity:.36470588;fill-rule:nonzero;stroke:none;stroke-width:1;stroke-linecap:butt;stroke-linejoin:miter;stroke-miterlimit:4;stroke-dasharray:none;stroke-dashoffset:0;stroke-opacity:1;marker:none;color-rendering:auto;image-rendering:auto;shape-rendering:auto;text-rendering:auto;enable-background:accumulate" id="path664-4-25" d="m 294.49909,-116.99628 c -1.93444,0 -3.5026,1.56816 -3.5026,3.5026 0,1.93443 1.56816,3.5026 3.5026,3.5026 1.93443,0 3.5026,-1.56817 3.5026,-3.5026 0,-1.93444 -1.56817,-3.5026 -3.5026,-3.5026 z m -1.99944,2.00213 c 0.27697,0 0.5015,0.22345 0.5015,0.49908 0,0.27563 -0.22453,0.49907 -0.5015,0.49907 -0.27698,0 -0.50151,-0.22344 -0.50151,-0.49907 0,-0.27563 0.22453,-0.49908 0.50151,-0.49908 z"/><path style="color:#000;clip-rule:nonzero;display:inline;overflow:visible;visibility:visible;opacity:1;isolation:auto;mix-blend-mode:normal;color-interpolation:sRGB;color-interpolation-filters:linearRGB;solid-color:#000;solid-opacity:1;fill:#bebebe;fill-opacity:.36470588;fill-rule:nonzero;stroke:none;stroke-width:1;stroke-linecap:butt;stroke-linejoin:miter;stroke-miterlimit:4;stroke-dasharray:none;stroke-dashoffset:0;stroke-opacity:1;marker:none;color-rendering:auto;image-rendering:auto;shape-rendering:auto;text-rendering:auto;enable-background:accumulate" id="path664-4-2-4" d="m 286.50353,-116.99628 c -1.93443,0 -3.5026,1.56816 -3.5026,3.5026 0,1.93443 1.56817,3.5026 3.5026,3.5026 1.93443,0 3.5026,-1.56817 3.5026,-3.5026 0,-1.93444 -1.56817,-3.5026 -3.5026,-3.5026 z m -2.00361,1.99746 c 0.27698,0 0.50151,0.22345 0.50151,0.49908 0,0.27563 -0.22453,0.49907 -0.50151,0.49907 -0.27697,0 -0.5015,-0.22344 -0.5015,-0.49907 0,-0.27563 0.22453,-0.49908 0.5015,-0.49908 z"/><rect id="rect19714-5" width="16" height="16" x="283" y="-125" style="display:inline;opacity:0;fill:#fff;fill-opacity:1;stroke:none"/></g></svg>