<svg xmlns="http://www.w3.org/2000/svg" xmlns:svg="http://www.w3.org/2000/svg" xmlns:xlink="http://www.w3.org/1999/xlink" id="svg2" width="50" height="50" version="1.0"><defs id="defs4"><linearGradient id="linearGradient3776"><stop style="stop-color:#729fcf;stop-opacity:1" id="stop3778" offset="0"/><stop style="stop-color:#fff;stop-opacity:1" id="stop3780" offset="1"/></linearGradient><linearGradient id="linearGradient3764"><stop style="stop-color:#729fcf;stop-opacity:1" id="stop3766" offset="0"/><stop id="stop3772" offset=".667" style="stop-color:#396eb3;stop-opacity:1"/><stop style="stop-color:#729fcf;stop-opacity:1" id="stop3768" offset="1"/></linearGradient><radialGradient id="radialGradient3774" cx="173.981" cy="198.006" r="24" fx="173.981" fy="198.006" gradientTransform="matrix(8.5534303e-8,2.1655682,-4.5495322,1.7969467e-7,1074.9368,-178.59967)" gradientUnits="userSpaceOnUse" xlink:href="#linearGradient3764"/><linearGradient id="linearGradient3782" x1="189.714" x2="169.629" y1="239.386" y2="164.426" gradientTransform="matrix(0.99234779,0,0,0.99234779,1.4517328,1.6775116)" gradientUnits="userSpaceOnUse" xlink:href="#linearGradient3776"/></defs><metadata id="metadata7"/><g id="layer1" transform="translate(-164.71428,-194.21933)"><g id="g3801"><rect id="rect3157" width="47" height="47" x="166.214" y="195.719" rx="3.163" ry="3.163" style="fill:url(#radialGradient3774);fill-opacity:1;stroke:url(#linearGradient3782);stroke-width:.99999994;stroke-miterlimit:4;stroke-opacity:1;stroke-dasharray:none"/><path id="path3967-7" d="m 36,25 c 0,6.075132 -4.924868,11 -11,11 -6.075132,0 -11,-4.924868 -11,-11 0,-6.075132 4.924868,-11 11,-11 6.075132,0 11,4.924868 11,11 z" transform="matrix(1.2272723,0,0,1.2272723,160.03248,189.53753)" style="opacity:.6;color:#000;fill:none;stroke:#729fcf;stroke-width:2.44444536999999995;stroke-linecap:butt;stroke-linejoin:miter;stroke-miterlimit:4;stroke-opacity:1;stroke-dasharray:none;stroke-dashoffset:0;marker:none;visibility:visible;display:inline;overflow:visible;enable-background:accumulate"/><path id="path3967" d="m 36,25 c 0,6.075132 -4.924868,11 -11,11 -6.075132,0 -11,-4.924868 -11,-11 0,-6.075132 4.924868,-11 11,-11 6.075132,0 11,4.924868 11,11 z" transform="matrix(1.227272,0,0,1.227272,159.03249,188.53754)" style="color:#000;fill:none;stroke:#3465a4;stroke-width:2.44444609000000002;stroke-linecap:butt;stroke-linejoin:miter;stroke-miterlimit:4;stroke-opacity:1;stroke-dasharray:none;stroke-dashoffset:0;marker:none;visibility:visible;display:inline;overflow:visible;enable-background:accumulate"/></g></g></svg>