<svg xmlns="http://www.w3.org/2000/svg" xmlns:svg="http://www.w3.org/2000/svg" xmlns:xlink="http://www.w3.org/1999/xlink" id="svg2" width="50" height="50" version="1.0"><defs id="defs4"><linearGradient id="linearGradient3849"><stop id="stop3851" offset="0" style="stop-color:#fce94f;stop-opacity:1"/><stop id="stop3853" offset="1" style="stop-color:#fff;stop-opacity:1"/></linearGradient><linearGradient id="linearGradient3841"><stop id="stop3843" offset="0" style="stop-color:#fdf08b;stop-opacity:1"/><stop style="stop-color:#edd400;stop-opacity:1" id="stop3845" offset=".667"/><stop id="stop3847" offset="1" style="stop-color:#fdf08b;stop-opacity:1"/></linearGradient><radialGradient id="radialGradient3804" cx="173.981" cy="198.006" r="24" fx="173.981" fy="198.006" gradientTransform="matrix(8.5534302e-8,2.1655682,-4.5495321,1.7969466e-7,1134.9367,-178.59966)" gradientUnits="userSpaceOnUse" xlink:href="#linearGradient3841"/><linearGradient id="linearGradient3806" x1="189.714" x2="169.629" y1="239.386" y2="164.426" gradientTransform="matrix(0.99234777,0,0,0.99234777,61.451738,1.6775178)" gradientUnits="userSpaceOnUse" xlink:href="#linearGradient3849"/></defs><metadata id="metadata7"/><g id="layer1" transform="translate(-164.71428,-194.21933)"><g id="g3806" transform="translate(-60,0)"><rect id="rect3157-9" width="47" height="47" x="226.214" y="195.719" rx="3.163" ry="3.163" style="fill:url(#radialGradient3804);fill-opacity:1;stroke:url(#linearGradient3806);stroke-width:1;stroke-miterlimit:4;stroke-opacity:1;stroke-dasharray:none"/><path id="path3855-3" d="m 85,10 4.408389,8.932373 9.857459,1.432372 -7.132924,6.952882 1.683854,9.817628 L 85,32.5 l -8.816779,4.635255 1.683855,-9.817628 -7.132924,-6.952882 9.857459,-1.432372 z" transform="matrix(0.96651072,0,0,0.96634675,168.56087,196.05586)" style="color:#000;fill:none;stroke:#fce94f;stroke-width:3.10421228;stroke-linecap:butt;stroke-linejoin:miter;stroke-miterlimit:4;stroke-opacity:1;stroke-dasharray:none;stroke-dashoffset:0;marker:none;visibility:visible;display:inline;overflow:visible;enable-background:accumulate"/><path id="path3855" d="m 85,10 4.408389,8.932373 9.857459,1.432372 -7.132924,6.952882 1.683854,9.817628 L 85,32.5 l -8.816779,4.635255 1.683855,-9.817628 -7.132924,-6.952882 9.857459,-1.432372 z" transform="matrix(0.96651072,0,0,0.96634675,167.56087,195.05586)" style="color:#000;fill:none;stroke:#ecc000;stroke-width:3.10421228;stroke-linecap:butt;stroke-linejoin:miter;stroke-miterlimit:4;stroke-opacity:1;stroke-dasharray:none;stroke-dashoffset:0;marker:none;visibility:visible;display:inline;overflow:visible;enable-background:accumulate"/></g></g></svg>